<mxfile host="app.diagrams.net" agent="Mozilla/5.0 (Macintosh; Intel Mac OS X 10_15_7) AppleWebKit/537.36 (KHTML, like Gecko) Chrome/135.0.0.0 Safari/537.36" version="26.2.12">
  <diagram name="Page-1" id="fJFuY8nG5ZJN_aT8dlx0">
    <mxGraphModel dx="1300" dy="864" grid="1" gridSize="10" guides="1" tooltips="1" connect="1" arrows="1" fold="1" page="1" pageScale="1" pageWidth="850" pageHeight="1100" math="0" shadow="0">
      <root>
        <mxCell id="0" />
        <mxCell id="1" parent="0" />
        <mxCell id="-k9vCSSIeqMl_5qpYs0B-1" value="" style="ellipse;whiteSpace=wrap;html=1;aspect=fixed;" parent="1" vertex="1">
          <mxGeometry x="80" y="280" width="40" height="40" as="geometry" />
        </mxCell>
        <mxCell id="-k9vCSSIeqMl_5qpYs0B-6" value="" style="ellipse;whiteSpace=wrap;html=1;aspect=fixed;" parent="1" vertex="1">
          <mxGeometry x="680" y="160" width="40" height="40" as="geometry" />
        </mxCell>
        <mxCell id="-k9vCSSIeqMl_5qpYs0B-7" value="" style="ellipse;whiteSpace=wrap;html=1;aspect=fixed;" parent="1" vertex="1">
          <mxGeometry x="680" y="240" width="40" height="40" as="geometry" />
        </mxCell>
        <mxCell id="-k9vCSSIeqMl_5qpYs0B-8" value="" style="ellipse;whiteSpace=wrap;html=1;aspect=fixed;" parent="1" vertex="1">
          <mxGeometry x="480" y="240" width="40" height="40" as="geometry" />
        </mxCell>
        <mxCell id="-k9vCSSIeqMl_5qpYs0B-9" value="" style="ellipse;whiteSpace=wrap;html=1;aspect=fixed;" parent="1" vertex="1">
          <mxGeometry x="280" y="240" width="40" height="40" as="geometry" />
        </mxCell>
        <mxCell id="-k9vCSSIeqMl_5qpYs0B-10" value="" style="ellipse;whiteSpace=wrap;html=1;aspect=fixed;" parent="1" vertex="1">
          <mxGeometry x="80" y="360" width="40" height="40" as="geometry" />
        </mxCell>
        <mxCell id="-k9vCSSIeqMl_5qpYs0B-11" value="" style="ellipse;whiteSpace=wrap;html=1;aspect=fixed;" parent="1" vertex="1">
          <mxGeometry x="80" y="200" width="40" height="40" as="geometry" />
        </mxCell>
        <mxCell id="-k9vCSSIeqMl_5qpYs0B-12" value="free user" style="text;html=1;align=center;verticalAlign=middle;resizable=0;points=[];autosize=1;strokeColor=none;fillColor=none;" parent="1" vertex="1">
          <mxGeometry x="65" y="170" width="70" height="30" as="geometry" />
        </mxCell>
        <mxCell id="-k9vCSSIeqMl_5qpYs0B-14" value="" style="endArrow=none;html=1;rounded=0;" parent="1" edge="1">
          <mxGeometry width="50" height="50" relative="1" as="geometry">
            <mxPoint x="199.52" y="400" as="sourcePoint" />
            <mxPoint x="199.52" y="360" as="targetPoint" />
          </mxGeometry>
        </mxCell>
        <mxCell id="-k9vCSSIeqMl_5qpYs0B-15" value="" style="endArrow=none;html=1;rounded=0;" parent="1" edge="1">
          <mxGeometry width="50" height="50" relative="1" as="geometry">
            <mxPoint x="400" y="280" as="sourcePoint" />
            <mxPoint x="400" y="240" as="targetPoint" />
          </mxGeometry>
        </mxCell>
        <mxCell id="-k9vCSSIeqMl_5qpYs0B-18" value="" style="endArrow=none;html=1;rounded=0;" parent="1" edge="1">
          <mxGeometry width="50" height="50" relative="1" as="geometry">
            <mxPoint x="799.5" y="160" as="sourcePoint" />
            <mxPoint x="799.5" y="120" as="targetPoint" />
          </mxGeometry>
        </mxCell>
        <mxCell id="-k9vCSSIeqMl_5qpYs0B-19" value="" style="endArrow=none;html=1;rounded=0;" parent="1" edge="1">
          <mxGeometry width="50" height="50" relative="1" as="geometry">
            <mxPoint x="599.52" y="200" as="sourcePoint" />
            <mxPoint x="599.52" y="160" as="targetPoint" />
          </mxGeometry>
        </mxCell>
        <mxCell id="-k9vCSSIeqMl_5qpYs0B-20" value="" style="endArrow=none;html=1;rounded=0;" parent="1" edge="1">
          <mxGeometry width="50" height="50" relative="1" as="geometry">
            <mxPoint x="600" y="280" as="sourcePoint" />
            <mxPoint x="600" y="240" as="targetPoint" />
          </mxGeometry>
        </mxCell>
        <mxCell id="-k9vCSSIeqMl_5qpYs0B-21" value="" style="endArrow=none;html=1;rounded=0;" parent="1" edge="1">
          <mxGeometry width="50" height="50" relative="1" as="geometry">
            <mxPoint x="200" y="280" as="sourcePoint" />
            <mxPoint x="200" y="240" as="targetPoint" />
          </mxGeometry>
        </mxCell>
        <mxCell id="-k9vCSSIeqMl_5qpYs0B-28" value="" style="edgeStyle=none;orthogonalLoop=1;jettySize=auto;html=1;rounded=0;" parent="1" edge="1">
          <mxGeometry width="100" relative="1" as="geometry">
            <mxPoint x="120" y="220" as="sourcePoint" />
            <mxPoint x="200" y="260" as="targetPoint" />
            <Array as="points" />
          </mxGeometry>
        </mxCell>
        <mxCell id="-k9vCSSIeqMl_5qpYs0B-29" value="" style="edgeStyle=none;orthogonalLoop=1;jettySize=auto;html=1;rounded=0;" parent="1" edge="1">
          <mxGeometry width="100" relative="1" as="geometry">
            <mxPoint x="120" y="299.52" as="sourcePoint" />
            <mxPoint x="200" y="260" as="targetPoint" />
            <Array as="points" />
          </mxGeometry>
        </mxCell>
        <mxCell id="-k9vCSSIeqMl_5qpYs0B-30" value="" style="edgeStyle=none;orthogonalLoop=1;jettySize=auto;html=1;rounded=0;" parent="1" edge="1">
          <mxGeometry width="100" relative="1" as="geometry">
            <mxPoint x="200" y="259.52" as="sourcePoint" />
            <mxPoint x="280" y="260" as="targetPoint" />
            <Array as="points" />
          </mxGeometry>
        </mxCell>
        <mxCell id="-k9vCSSIeqMl_5qpYs0B-31" value="paid user" style="text;html=1;align=center;verticalAlign=middle;resizable=0;points=[];autosize=1;strokeColor=none;fillColor=none;" parent="1" vertex="1">
          <mxGeometry x="65" y="250" width="70" height="30" as="geometry" />
        </mxCell>
        <mxCell id="-k9vCSSIeqMl_5qpYs0B-32" value="super user" style="text;html=1;align=center;verticalAlign=middle;resizable=0;points=[];autosize=1;strokeColor=none;fillColor=none;" parent="1" vertex="1">
          <mxGeometry x="60" y="330" width="80" height="30" as="geometry" />
        </mxCell>
        <mxCell id="-k9vCSSIeqMl_5qpYs0B-33" value="word" style="text;html=1;align=center;verticalAlign=middle;resizable=0;points=[];autosize=1;strokeColor=none;fillColor=none;" parent="1" vertex="1">
          <mxGeometry x="275" y="210" width="50" height="30" as="geometry" />
        </mxCell>
        <mxCell id="-k9vCSSIeqMl_5qpYs0B-35" value="submit" style="text;html=1;align=center;verticalAlign=middle;resizable=0;points=[];autosize=1;strokeColor=none;fillColor=none;" parent="1" vertex="1">
          <mxGeometry x="170" y="210" width="60" height="30" as="geometry" />
        </mxCell>
        <mxCell id="-k9vCSSIeqMl_5qpYs0B-36" value="" style="shape=waypoint;sketch=0;size=6;pointerEvents=1;points=[];fillColor=none;resizable=0;rotatable=0;perimeter=centerPerimeter;snapToPoint=1;" parent="1" vertex="1">
          <mxGeometry x="90" y="210" width="20" height="20" as="geometry" />
        </mxCell>
        <mxCell id="-k9vCSSIeqMl_5qpYs0B-37" value="" style="shape=waypoint;sketch=0;size=6;pointerEvents=1;points=[];fillColor=none;resizable=0;rotatable=0;perimeter=centerPerimeter;snapToPoint=1;" parent="1" vertex="1">
          <mxGeometry x="90" y="290" width="20" height="20" as="geometry" />
        </mxCell>
        <mxCell id="-k9vCSSIeqMl_5qpYs0B-38" value="review" style="text;html=1;align=center;verticalAlign=middle;resizable=0;points=[];autosize=1;strokeColor=none;fillColor=none;" parent="1" vertex="1">
          <mxGeometry x="170" y="400" width="60" height="30" as="geometry" />
        </mxCell>
        <mxCell id="-k9vCSSIeqMl_5qpYs0B-39" value="" style="shape=waypoint;sketch=0;size=6;pointerEvents=1;points=[];fillColor=none;resizable=0;rotatable=0;perimeter=centerPerimeter;snapToPoint=1;" parent="1" vertex="1">
          <mxGeometry x="290" y="250" width="20" height="20" as="geometry" />
        </mxCell>
        <mxCell id="-k9vCSSIeqMl_5qpYs0B-40" value="" style="shape=waypoint;sketch=0;size=6;pointerEvents=1;points=[];fillColor=none;resizable=0;rotatable=0;perimeter=centerPerimeter;snapToPoint=1;" parent="1" vertex="1">
          <mxGeometry x="90" y="370" width="20" height="20" as="geometry" />
        </mxCell>
        <mxCell id="-k9vCSSIeqMl_5qpYs0B-41" value="" style="edgeStyle=none;orthogonalLoop=1;jettySize=auto;html=1;rounded=0;" parent="1" edge="1">
          <mxGeometry width="100" relative="1" as="geometry">
            <mxPoint x="120" y="379.52" as="sourcePoint" />
            <mxPoint x="200" y="380" as="targetPoint" />
            <Array as="points" />
          </mxGeometry>
        </mxCell>
        <mxCell id="-k9vCSSIeqMl_5qpYs0B-42" value="" style="edgeStyle=none;orthogonalLoop=1;jettySize=auto;html=1;rounded=0;entryX=0;entryY=0.5;entryDx=0;entryDy=0;" parent="1" target="-k9vCSSIeqMl_5qpYs0B-9" edge="1">
          <mxGeometry width="100" relative="1" as="geometry">
            <mxPoint x="200" y="379.52" as="sourcePoint" />
            <mxPoint x="300" y="379.52" as="targetPoint" />
            <Array as="points" />
          </mxGeometry>
        </mxCell>
        <mxCell id="-k9vCSSIeqMl_5qpYs0B-43" value="add" style="text;html=1;align=center;verticalAlign=middle;resizable=0;points=[];autosize=1;strokeColor=none;fillColor=none;" parent="1" vertex="1">
          <mxGeometry x="380" y="210" width="40" height="30" as="geometry" />
        </mxCell>
        <mxCell id="-k9vCSSIeqMl_5qpYs0B-44" value="" style="edgeStyle=none;orthogonalLoop=1;jettySize=auto;html=1;rounded=0;" parent="1" edge="1">
          <mxGeometry width="100" relative="1" as="geometry">
            <mxPoint x="320" y="259.52" as="sourcePoint" />
            <mxPoint x="400" y="260" as="targetPoint" />
            <Array as="points" />
          </mxGeometry>
        </mxCell>
        <mxCell id="-k9vCSSIeqMl_5qpYs0B-45" value="" style="edgeStyle=none;orthogonalLoop=1;jettySize=auto;html=1;rounded=0;" parent="1" edge="1">
          <mxGeometry width="100" relative="1" as="geometry">
            <mxPoint x="400" y="259.52" as="sourcePoint" />
            <mxPoint x="480" y="260" as="targetPoint" />
            <Array as="points" />
          </mxGeometry>
        </mxCell>
        <mxCell id="-k9vCSSIeqMl_5qpYs0B-46" value="blacklist" style="text;html=1;align=center;verticalAlign=middle;resizable=0;points=[];autosize=1;strokeColor=none;fillColor=none;" parent="1" vertex="1">
          <mxGeometry x="460" y="210" width="70" height="30" as="geometry" />
        </mxCell>
        <mxCell id="-k9vCSSIeqMl_5qpYs0B-47" value="" style="edgeStyle=none;orthogonalLoop=1;jettySize=auto;html=1;rounded=0;" parent="1" edge="1">
          <mxGeometry width="100" relative="1" as="geometry">
            <mxPoint x="520" y="259.52" as="sourcePoint" />
            <mxPoint x="600" y="260" as="targetPoint" />
            <Array as="points" />
          </mxGeometry>
        </mxCell>
        <mxCell id="-k9vCSSIeqMl_5qpYs0B-48" value="replace" style="text;html=1;align=center;verticalAlign=middle;resizable=0;points=[];autosize=1;strokeColor=none;fillColor=none;" parent="1" vertex="1">
          <mxGeometry x="570" y="210" width="60" height="30" as="geometry" />
        </mxCell>
        <mxCell id="-k9vCSSIeqMl_5qpYs0B-49" value="" style="edgeStyle=none;orthogonalLoop=1;jettySize=auto;html=1;rounded=0;" parent="1" edge="1">
          <mxGeometry width="100" relative="1" as="geometry">
            <mxPoint x="600" y="259.52" as="sourcePoint" />
            <mxPoint x="680" y="260" as="targetPoint" />
            <Array as="points" />
          </mxGeometry>
        </mxCell>
        <mxCell id="-k9vCSSIeqMl_5qpYs0B-50" value="&lt;font style=&quot;font-size: 29px;&quot;&gt;*&lt;/font&gt;" style="text;html=1;align=center;verticalAlign=middle;resizable=0;points=[];autosize=1;strokeColor=none;fillColor=none;" parent="1" vertex="1">
          <mxGeometry x="685" y="210" width="30" height="50" as="geometry" />
        </mxCell>
        <mxCell id="-k9vCSSIeqMl_5qpYs0B-51" value="" style="edgeStyle=none;orthogonalLoop=1;jettySize=auto;html=1;rounded=0;" parent="1" edge="1">
          <mxGeometry width="100" relative="1" as="geometry">
            <mxPoint x="320" y="259.52000000000004" as="sourcePoint" />
            <mxPoint x="400" y="180" as="targetPoint" />
            <Array as="points" />
          </mxGeometry>
        </mxCell>
        <mxCell id="-k9vCSSIeqMl_5qpYs0B-52" value="count" style="text;html=1;align=center;verticalAlign=middle;resizable=0;points=[];autosize=1;strokeColor=none;fillColor=none;" parent="1" vertex="1">
          <mxGeometry x="375" y="130" width="50" height="30" as="geometry" />
        </mxCell>
        <mxCell id="-k9vCSSIeqMl_5qpYs0B-53" value="tokens" style="text;html=1;align=center;verticalAlign=middle;resizable=0;points=[];autosize=1;strokeColor=none;fillColor=none;" parent="1" vertex="1">
          <mxGeometry x="670" y="130" width="60" height="30" as="geometry" />
        </mxCell>
        <mxCell id="-k9vCSSIeqMl_5qpYs0B-54" value="" style="edgeStyle=none;orthogonalLoop=1;jettySize=auto;html=1;rounded=0;entryX=0;entryY=0.5;entryDx=0;entryDy=0;" parent="1" target="-k9vCSSIeqMl_5qpYs0B-6" edge="1">
          <mxGeometry width="100" relative="1" as="geometry">
            <mxPoint x="600" y="180" as="sourcePoint" />
            <mxPoint x="670" y="180" as="targetPoint" />
            <Array as="points" />
          </mxGeometry>
        </mxCell>
        <mxCell id="-k9vCSSIeqMl_5qpYs0B-55" value="" style="edgeStyle=none;orthogonalLoop=1;jettySize=auto;html=1;rounded=0;" parent="1" edge="1">
          <mxGeometry width="100" relative="1" as="geometry">
            <mxPoint x="720" y="179.51999999999998" as="sourcePoint" />
            <mxPoint x="800" y="140" as="targetPoint" />
            <Array as="points" />
          </mxGeometry>
        </mxCell>
        <mxCell id="-k9vCSSIeqMl_5qpYs0B-56" value="deduct" style="text;html=1;align=center;verticalAlign=middle;resizable=0;points=[];autosize=1;strokeColor=none;fillColor=none;" parent="1" vertex="1">
          <mxGeometry x="770" y="90" width="60" height="30" as="geometry" />
        </mxCell>
        <mxCell id="-k9vCSSIeqMl_5qpYs0B-58" value="" style="curved=1;endArrow=classic;html=1;rounded=0;entryX=1;entryY=0.5;entryDx=0;entryDy=0;" parent="1" target="-k9vCSSIeqMl_5qpYs0B-11" edge="1">
          <mxGeometry width="50" height="50" relative="1" as="geometry">
            <mxPoint x="800" y="140" as="sourcePoint" />
            <mxPoint x="700" y="110" as="targetPoint" />
            <Array as="points">
              <mxPoint x="850" y="100" />
              <mxPoint x="760" y="40" />
              <mxPoint x="620" y="40" />
              <mxPoint x="440" y="80" />
              <mxPoint x="270" y="130" />
            </Array>
          </mxGeometry>
        </mxCell>
        <mxCell id="-k9vCSSIeqMl_5qpYs0B-59" value="" style="curved=1;endArrow=classic;html=1;rounded=0;entryX=0;entryY=0.5;entryDx=0;entryDy=0;" parent="1" target="-k9vCSSIeqMl_5qpYs0B-1" edge="1">
          <mxGeometry width="50" height="50" relative="1" as="geometry">
            <mxPoint x="800" y="220" as="sourcePoint" />
            <mxPoint x="50" y="390" as="targetPoint" />
            <Array as="points">
              <mxPoint x="850" y="270" />
              <mxPoint x="770" y="350" />
              <mxPoint x="630" y="410" />
              <mxPoint x="350" y="460" />
              <mxPoint x="170" y="460" />
              <mxPoint x="90" y="430" />
              <mxPoint x="50" y="370" />
              <mxPoint x="50" y="330" />
            </Array>
          </mxGeometry>
        </mxCell>
        <mxCell id="OTnG6p-B-B8I2gJ1cc_K-1" value="" style="ellipse;whiteSpace=wrap;html=1;aspect=fixed;" vertex="1" parent="1">
          <mxGeometry x="480" y="160" width="40" height="40" as="geometry" />
        </mxCell>
        <mxCell id="OTnG6p-B-B8I2gJ1cc_K-2" value="" style="endArrow=none;html=1;rounded=0;" edge="1" parent="1">
          <mxGeometry width="50" height="50" relative="1" as="geometry">
            <mxPoint x="399.5" y="200" as="sourcePoint" />
            <mxPoint x="399.5" y="160" as="targetPoint" />
          </mxGeometry>
        </mxCell>
        <mxCell id="OTnG6p-B-B8I2gJ1cc_K-3" value="charge" style="text;html=1;align=center;verticalAlign=middle;resizable=0;points=[];autosize=1;strokeColor=none;fillColor=none;" vertex="1" parent="1">
          <mxGeometry x="570" y="130" width="60" height="30" as="geometry" />
        </mxCell>
        <mxCell id="OTnG6p-B-B8I2gJ1cc_K-5" value="" style="edgeStyle=none;orthogonalLoop=1;jettySize=auto;html=1;rounded=0;" edge="1" parent="1">
          <mxGeometry width="100" relative="1" as="geometry">
            <mxPoint x="520" y="179.5" as="sourcePoint" />
            <mxPoint x="600" y="179.98000000000002" as="targetPoint" />
            <Array as="points" />
          </mxGeometry>
        </mxCell>
        <mxCell id="OTnG6p-B-B8I2gJ1cc_K-6" value="" style="edgeStyle=none;orthogonalLoop=1;jettySize=auto;html=1;rounded=0;" edge="1" parent="1">
          <mxGeometry width="100" relative="1" as="geometry">
            <mxPoint x="400" y="179.5" as="sourcePoint" />
            <mxPoint x="480" y="179.98000000000002" as="targetPoint" />
            <Array as="points" />
          </mxGeometry>
        </mxCell>
        <mxCell id="OTnG6p-B-B8I2gJ1cc_K-7" value="word length" style="text;html=1;align=center;verticalAlign=middle;resizable=0;points=[];autosize=1;strokeColor=none;fillColor=none;" vertex="1" parent="1">
          <mxGeometry x="455" y="130" width="90" height="30" as="geometry" />
        </mxCell>
        <mxCell id="OTnG6p-B-B8I2gJ1cc_K-8" value="" style="endArrow=none;html=1;rounded=0;" edge="1" parent="1">
          <mxGeometry width="50" height="50" relative="1" as="geometry">
            <mxPoint x="799.5" y="240" as="sourcePoint" />
            <mxPoint x="799.5" y="200" as="targetPoint" />
          </mxGeometry>
        </mxCell>
        <mxCell id="OTnG6p-B-B8I2gJ1cc_K-10" value="" style="edgeStyle=none;orthogonalLoop=1;jettySize=auto;html=1;rounded=0;" edge="1" parent="1">
          <mxGeometry width="100" relative="1" as="geometry">
            <mxPoint x="720" y="180" as="sourcePoint" />
            <mxPoint x="800" y="220" as="targetPoint" />
            <Array as="points" />
          </mxGeometry>
        </mxCell>
        <mxCell id="OTnG6p-B-B8I2gJ1cc_K-11" value="deduct" style="text;html=1;align=center;verticalAlign=middle;resizable=0;points=[];autosize=1;strokeColor=none;fillColor=none;" vertex="1" parent="1">
          <mxGeometry x="770" y="170" width="60" height="30" as="geometry" />
        </mxCell>
      </root>
    </mxGraphModel>
  </diagram>
</mxfile>
